<svg xmlns="http://www.w3.org/2000/svg" viewBox="0 0 179.05 96.95"><defs><style>.cls-1,.cls-2{fill:#a08b63;}.cls-2,.cls-3,.cls-4{fill-rule:evenodd;}.cls-3{fill:#f7941d;}.cls-4{fill:#00a24e;}</style></defs><g id="Layer_2" data-name="Layer 2"><g id="Layer_1-2" data-name="Layer 1"><path class="cls-1" d="M22.16,64.65H13l-1.74,4.09H8.1l8-18.12h3.13l7.92,18.12H23.89ZM21,61.93l-3.42-8-3.41,8Z"/><path class="cls-1" d="M39.24,55v2L31.37,66.3l8.1,0v2.43l-11.77,0v-2l7.87-9.32H27.93V55Z"/><path class="cls-1" d="M50,68.74V67.05a5.56,5.56,0,0,1-4.55,1.81c-3,0-4.84-1.83-4.84-4.27s1.89-4.11,5.2-4.14H50V60c0-1.74-1.12-2.77-3.29-2.77a7.19,7.19,0,0,0-4.06,1.4L41.39,56.6a10.09,10.09,0,0,1,5.93-1.74c3.54,0,5.54,1.81,5.56,4.84l0,9Zm0-4.84V62.63H46.23c-1.94,0-2.85.51-2.85,1.83s1,2.05,2.67,2.05C48.17,66.51,49.8,65.4,50,63.9Z"/><path class="cls-1" d="M69.37,49.53V68.74h-3V66.38a5.35,5.35,0,0,1-4.84,2.48c-4,0-6.61-2.87-6.61-7.06s2.67-7,6.55-7a5.44,5.44,0,0,1,4.9,2.51V49.53Zm-3,12.37a4.2,4.2,0,0,0-4.22-4.53,4.25,4.25,0,0,0-4.25,4.53,4.24,4.24,0,1,0,8.47,0Z"/><path class="cls-1" d="M76.47,51a1.74,1.74,0,1,1-1.74-1.79A1.71,1.71,0,0,1,76.47,51ZM76.21,55V68.74H73.26V55Z"/><polygon class="cls-2" points="39.37 21.63 45.65 28.28 46.97 30.14 48.31 31.99 46.67 30.41 45.04 28.83 39.37 21.63"/><polygon class="cls-2" points="42.2 19.73 46.64 27.74 47.47 29.86 48.31 31.99 47.11 30.05 45.91 28.1 42.2 19.73"/><polygon class="cls-2" points="45.43 18.66 47.76 27.49 48.03 29.74 48.31 31.99 47.63 29.81 46.95 27.64 45.43 18.66"/><polygon class="cls-2" points="48.87 18.5 48.91 27.55 48.61 29.76 48.31 31.99 48.2 29.73 48.08 27.48 48.87 18.5"/><polygon class="cls-2" points="52.27 19.26 50.01 27.91 49.16 29.95 48.31 31.99 48.77 29.81 49.23 27.62 52.27 19.26"/><polygon class="cls-2" points="55.4 20.89 51.01 28.54 49.66 30.27 48.31 31.99 49.31 30.03 50.31 28.07 55.4 20.89"/><polygon class="cls-2" points="58.05 23.27 51.81 29.42 50.06 30.7 48.31 31.99 49.78 30.38 51.26 28.77 58.05 23.27"/><polygon class="cls-2" points="60.03 26.25 52.39 30.46 50.34 31.23 48.31 31.99 50.16 30.85 52.01 29.7 60.03 26.25"/><polygon class="cls-2" points="61.21 29.62 52.68 31.62 50.5 31.81 48.31 31.99 50.4 31.38 52.5 30.79 61.21 29.62"/><polygon class="cls-2" points="61.52 33.15 52.67 32.79 50.49 32.39 48.31 31.99 50.51 31.96 52.71 31.95 61.52 33.15"/><polygon class="cls-2" points="60.92 36.6 52.37 33.92 50.34 32.95 48.31 31.99 50.46 32.55 52.62 33.12 60.92 36.6"/><polygon class="cls-2" points="59.47 39.74 51.79 34.91 50.05 33.45 48.31 31.99 50.27 33.1 52.23 34.21 59.47 39.74"/><polygon class="cls-2" points="57.25 42.34 50.97 35.7 49.64 33.84 48.31 31.99 49.94 33.57 51.58 35.16 57.25 42.34"/><polygon class="cls-2" points="54.43 44.25 49.97 36.23 49.14 34.11 48.31 31.99 49.51 33.93 50.7 35.88 54.43 44.25"/><polygon class="cls-2" points="51.19 45.32 48.86 36.49 48.58 34.24 48.31 31.99 48.99 34.16 49.66 36.34 51.19 45.32"/><polygon class="cls-2" points="47.74 45.48 47.71 36.43 48.01 34.21 48.31 31.99 48.42 34.25 48.53 36.5 47.74 45.48"/><polygon class="cls-2" points="44.34 44.72 46.6 36.07 47.45 34.03 48.31 31.99 47.85 34.18 47.38 36.36 44.34 44.72"/><polygon class="cls-2" points="41.22 43.1 45.6 35.44 46.96 33.71 48.31 31.99 47.3 33.95 46.3 35.91 41.22 43.1"/><polygon class="cls-2" points="38.57 40.71 44.8 34.56 46.55 33.27 48.31 31.99 46.83 33.6 45.35 35.2 38.57 40.71"/><polygon class="cls-2" points="36.59 37.73 44.23 33.51 46.27 32.75 48.31 31.99 46.46 33.13 44.6 34.28 36.59 37.73"/><polygon class="cls-2" points="35.4 34.36 43.94 32.36 46.12 32.18 48.31 31.99 46.21 32.59 44.11 33.19 35.4 34.36"/><polygon class="cls-2" points="35.09 30.83 43.94 31.18 46.13 31.59 48.31 31.99 46.1 32.01 43.9 32.03 35.09 30.83"/><polygon class="cls-2" points="35.69 27.38 44.24 30.06 46.28 31.02 48.31 31.99 46.15 31.42 44 30.86 35.69 27.38"/><polygon class="cls-2" points="37.15 24.24 44.83 29.07 46.57 30.53 48.31 31.99 46.34 30.88 44.38 29.76 37.15 24.24"/><path class="cls-2" d="M43.67,19.18a.68.68,0,0,1,.9.33.65.65,0,0,1-.28.89.69.69,0,0,1-.62-1.22Z"/><path class="cls-2" d="M47,18.53a.7.7,0,0,1,.79.55.64.64,0,0,1-.5.78.7.7,0,0,1-.79-.54A.65.65,0,0,1,47,18.53Z"/><path class="cls-2" d="M50.46,18.8a.7.7,0,0,1,.63.73.63.63,0,0,1-.69.61.69.69,0,0,1-.63-.72A.63.63,0,0,1,50.46,18.8Z"/><path class="cls-2" d="M53.75,20a.72.72,0,0,1,.43.87.64.64,0,0,1-.83.41.73.73,0,0,1-.44-.87A.65.65,0,0,1,53.75,20Z"/><path class="cls-2" d="M56.67,22a.7.7,0,0,1,.19.94.64.64,0,0,1-.91.17.69.69,0,0,1-.2-.94A.65.65,0,0,1,56.67,22Z"/><path class="cls-2" d="M59,24.62a.68.68,0,0,1,0,.95.65.65,0,0,1-.93-.08.68.68,0,0,1,0-.95A.65.65,0,0,1,59,24.62Z"/><path class="cls-2" d="M60.63,27.79a.65.65,0,0,1-.28.9.69.69,0,0,1-.9-.33.66.66,0,1,1,1.18-.57Z"/><path class="cls-2" d="M61.41,31.25a.66.66,0,0,1-.5.79.71.71,0,0,1-.79-.55.65.65,0,0,1,.5-.79A.7.7,0,0,1,61.41,31.25Z"/><path class="cls-2" d="M61.29,34.76a.63.63,0,0,1-.68.62.72.72,0,0,1-.64-.74.64.64,0,0,1,.69-.61A.7.7,0,0,1,61.29,34.76Z"/><path class="cls-2" d="M60.3,38.08a.62.62,0,0,1-.83.4.7.7,0,0,1-.43-.86.63.63,0,0,1,.82-.41A.72.72,0,0,1,60.3,38.08Z"/><path class="cls-2" d="M58.48,41a.65.65,0,0,1-.91.17.7.7,0,0,1-.2-.95.64.64,0,0,1,.91-.17A.7.7,0,0,1,58.48,41Z"/><path class="cls-2" d="M56,43.28A.66.66,0,0,1,55,43.2a.7.7,0,0,1,0-1,.66.66,0,0,1,.94.08A.69.69,0,0,1,56,43.28Z"/><path class="cls-2" d="M52.94,44.8a.68.68,0,0,1-.89-.32.65.65,0,1,1,.89.32Z"/><path class="cls-2" d="M49.59,45.45a.7.7,0,0,1-.79-.55.64.64,0,0,1,.5-.78.68.68,0,0,1,.79.54A.65.65,0,0,1,49.59,45.45Z"/><path class="cls-2" d="M46.16,45.18a.7.7,0,0,1-.63-.73.63.63,0,0,1,.69-.62.7.7,0,0,1,.62.73A.62.62,0,0,1,46.16,45.18Z"/><path class="cls-2" d="M47.18,30.68a1.65,1.65,0,0,1,2.36.21,1.72,1.72,0,0,1-.1,2.4,1.65,1.65,0,0,1-2.36-.2A1.72,1.72,0,0,1,47.18,30.68Z"/><path class="cls-2" d="M58.39,23A13.81,13.81,0,0,0,42.56,19v1.16a12.74,12.74,0,0,1,15.09,3.44c4.73,5.48,4.39,13.68-.77,18.29a12.28,12.28,0,0,1-14.32,1.36v1.17a13.25,13.25,0,0,0,15-1.74C63.14,37.72,63.5,28.88,58.39,23Z"/><path class="cls-1" d="M94,75l-4.77-6.4-2.46,2.71V75H84.31V60.45h2.44V68l6.92-7.5h2.88l-5.62,6.2,6,8.3Z"/><path class="cls-1" d="M105.12,75V73.6a4.46,4.46,0,0,1-3.65,1.45c-2.38,0-3.87-1.47-3.87-3.41s1.51-3.3,4.16-3.32h3.34V68c0-1.39-.89-2.21-2.63-2.21a5.8,5.8,0,0,0-3.25,1.11l-1-1.65A8.1,8.1,0,0,1,103,63.85c2.83,0,4.43,1.45,4.45,3.87l0,7.23Zm0-3.87v-1h-3c-1.56,0-2.28.42-2.28,1.47s.81,1.64,2.13,1.64C103.67,73.17,105,72.28,105.1,71.08Z"/><path class="cls-1" d="M65.79,78.7l6,12,6-12h3.59V96.82H78.5l0-13.54L72.76,94.93h-2L65,83.28V96.82H62.17V78.7Z"/><path class="cls-1" d="M93.54,96.82V95.13A5.57,5.57,0,0,1,89,97c-3,0-4.84-1.84-4.84-4.28s1.89-4.11,5.2-4.14h4.17v-.41c0-1.74-1.12-2.77-3.29-2.77a7.19,7.19,0,0,0-4.06,1.4L85,84.68a10.06,10.06,0,0,1,5.93-1.74c3.54,0,5.54,1.81,5.56,4.84l0,9Zm0-4.84V90.71H89.79c-1.94,0-2.85.51-2.85,1.84s1,2,2.67,2C91.73,94.59,93.36,93.48,93.52,92Z"/><path class="cls-1" d="M113.14,88.25v8.57h-3V89.08a3.07,3.07,0,0,0-3.31-3.34c-2.46,0-3.94,1.86-3.94,4.29v6.79h-3V77.61h3v8.13c1-1.94,2.75-2.8,5.1-2.8C111.22,82.94,113.14,85,113.14,88.25Z"/><path class="cls-1" d="M129.55,89.91c0,4.16-2.92,7-7.17,7s-7.2-2.85-7.2-7,2.93-7,7.2-7S129.55,85.76,129.55,89.91Zm-11.39,0a4.21,4.21,0,1,0,4.22-4.48A4.15,4.15,0,0,0,118.16,90Z"/><path class="cls-1" d="M139.8,95.94a6.67,6.67,0,0,1-3.39,1,3.64,3.64,0,0,1-3.86-4V85.79h-1.94V83.56h1.94V79.78h2.95v3.78h4.07v2.23H135.5v6.6c0,1.42.55,1.86,1.48,1.86a4.76,4.76,0,0,0,2.07-.59Z"/><path class="cls-1" d="M145.78,85.3c-1.16,0-2,.39-2,1.37,0,2.54,7.33,1.16,7.3,6.16,0,2.82-2.51,4.09-5.28,4.09A8.48,8.48,0,0,1,140.24,95l1.06-2.12a7.52,7.52,0,0,0,4.61,1.71c1.27,0,2.25-.44,2.25-1.48,0-2.82-7.24-1.24-7.22-6.21,0-2.79,2.43-4,5.07-4a8.7,8.7,0,0,1,4.82,1.39l-1.09,2.2A8.06,8.06,0,0,0,145.78,85.3Z"/><path class="cls-1" d="M161.68,96.82V95.13A5.6,5.6,0,0,1,157.12,97c-3,0-4.84-1.84-4.84-4.28s1.89-4.11,5.2-4.14h4.17v-.41c0-1.74-1.11-2.77-3.29-2.77a7.19,7.19,0,0,0-4.06,1.4l-1.22-2.07A10.11,10.11,0,0,1,159,82.94c3.55,0,5.54,1.81,5.56,4.84l0,9Zm0-4.84V90.71h-3.73c-1.94,0-2.85.51-2.85,1.84s1,2,2.67,2C159.86,94.59,161.49,93.48,161.65,92Z"/><path class="cls-1" d="M168.46,83.05l3.83,10.84,3.78-10.84h3l-5.29,13.77h-3.08l-5.33-13.77Z"/><path class="cls-1" d="M11.25,86.22H3.94L2.55,89.49H0L6.4,75H8.91l6.33,14.5H12.63ZM10.31,84,7.58,77.6,4.85,84Z"/><path class="cls-1" d="M34.92,82.64v6.85H32.54V83.3a2.45,2.45,0,0,0-2.61-2.69,3.13,3.13,0,0,0-3,3.43v5.45H24.52V83.3a2.43,2.43,0,0,0-2.59-2.69A3.15,3.15,0,0,0,18.87,84v5.45H16.51v-11h2.36v2.14a4,4,0,0,1,4-2.22A3.7,3.7,0,0,1,26.7,81a4,4,0,0,1,4.18-2.65C33.41,78.39,34.92,80,34.92,82.64Z"/><path class="cls-1" d="M43.78,78.39v2.28A3.33,3.33,0,0,0,40,83.73v5.76H37.59v-11H40v2.2A4,4,0,0,1,43.78,78.39Z"/><path class="cls-1" d="M47.8,75.33a1.39,1.39,0,1,1-1.39-1.43A1.36,1.36,0,0,1,47.8,75.33Zm-.21,3.14v11H45.23v-11Z"/><path class="cls-1" d="M56.83,88.79a5.37,5.37,0,0,1-2.72.81A2.91,2.91,0,0,1,51,86.38V80.67H49.47V78.89H51v-3h2.36v3h3.25v1.78H53.39V86c0,1.14.43,1.49,1.18,1.49A3.76,3.76,0,0,0,56.23,87Z"/><path class="cls-3" d="M144.66,15.36a2,2,0,0,0-1.88.16c-5,2.25-10,2.16-15.27.64a66.22,66.22,0,0,0-12.88-2.66c-7.87-.67-14.9,2.06-21.72,5.5-3,1.51-5.91,3.12-9.19,3.86-2.91.66-4-.45-3.43-3.38.45-2.46-.1-3.46-2.48-4.28a8.92,8.92,0,0,0-2-.47c-8.44-1-16.7.17-24.86,2.19l-.66.3s9.22-.6,13.24,7.5a53.17,53.17,0,0,1,15.27.16c2.07.29,2.9,1.39,2.13,3.51a10,10,0,0,0-.54,2.66c-.21,2.75,1,3.8,3.7,3.19a12.19,12.19,0,0,0,2.58-.85,84.83,84.83,0,0,0,10.77-5.84,25.75,25.75,0,0,1,12-4.54c5.9-.63,11.8-.16,17.69-.42,5.1-.22,10.16-.77,14.48-3.88C142.83,17.82,144.21,17,144.66,15.36Z"/><path class="cls-4" d="M144.66,34a2,2,0,0,0-1.88.15c-5,2.26-10,2.17-15.27.65a66.22,66.22,0,0,0-12.88-2.66c-7.87-.67-14.9,2.05-21.72,5.5-3,1.51-5.91,3.12-9.19,3.86-2.91.65-4-.46-3.43-3.38.45-2.47-.1-3.46-2.48-4.29a9.5,9.5,0,0,0-2-.46,54.81,54.81,0,0,0-10.47-.23c-.13,1.31-1.07,8.05-7.3,11.42.76-.21,1.52-.41,2.29-.59a49.89,49.89,0,0,1,18.47-.46c2.07.29,2.9,1.4,2.13,3.51a10.14,10.14,0,0,0-.54,2.67c-.21,2.75,1,3.79,3.7,3.18A11.65,11.65,0,0,0,86.69,52,84.83,84.83,0,0,0,97.46,46.2a25.86,25.86,0,0,1,12-4.54c5.9-.62,11.8-.15,17.69-.41,5.1-.22,10.16-.77,14.48-3.89C142.83,36.48,144.21,35.66,144.66,34Z"/><polygon class="cls-2" points="9.35 0 9.35 4 33.07 4 13.07 40.68 16.34 43.05 40.22 0 9.35 0"/><polygon class="cls-2" points="62.83 0 44.26 0 30.77 24.34 33.89 25.88 46.29 4 62.83 4 62.83 0"/></g></g></svg>