<svg id="Layer_1" data-name="Layer 1" xmlns="http://www.w3.org/2000/svg" viewBox="0 0 684.86 300"><defs><style>.cls-1{fill:#f7a609;}.cls-1,.cls-2,.cls-3{fill-rule:evenodd;}.cls-2{fill:#1ca438;}.cls-3{fill:#1e1e1c;}</style></defs><title>Swacch-Bharat</title><polygon class="cls-1" points="192.61 112.37 245.42 112.37 245.42 122.01 192.61 122.01 192.61 112.37 192.61 112.37"/><polygon class="cls-2" points="192.61 129.94 245.42 129.94 245.42 139.56 192.61 139.56 192.61 129.94 192.61 129.94"/><path class="cls-3" d="M75.9,149.39a13.18,13.18,0,0,1-3.24.56,14.18,14.18,0,0,1-4.79-.68V137.33H96.58v9.33a31.61,31.61,0,0,0-5-4.89,10.41,10.41,0,0,0-5-1.19c-6.12,0-10.42,4.06-10.58,8.81Zm294.81-12.06v5.38h-8.88c-6.43,0-9.32,3.68-9.32,7.14,0,4.25,2.31,8.19,9,17.74l2.5-1.93c-3.39-4-5.66-8.17-5.66-11.21,0-3.5,1.25-6,5.78-6h6.83v15.39l6.05,4.27V137.31h6.72l-3.33-5.77H294.9l3.36,5.77h4.91v12.87H292.78l.21-7.41c0-4.1-2.31-11.16-9.44-11.16a6.75,6.75,0,0,0-7.06,6.4v.39c0,3.85,3.15,7.7,10.77,9.49l-.35,2.17h-3.36a1.92,1.92,0,0,0-1.93,1.92v.14c0,2.37,6.6,8.58,8.68,8.58,1.48,0,1.92-1.15,2-4.85h10.87v7.85l6,4.27V137.19h8.21v26.45l6,4.27V137.13H337v9.41c0,.73-.27,1.23-.73,1.23-1.16,0-2.79-1.71-4.54-1.71a2.5,2.5,0,0,0-1.93,2.23c0,1.12,1.2,2.91,3.62,5.77l11.33,14.12,2.41-2.38a76.2,76.2,0,0,1-8.76-10.06,9.06,9.06,0,0,0,4.39-6.68V137.33Zm-83,2.19-.23,5.44c-3.85-.67-5.63-2.46-5.63-5.29a4.38,4.38,0,0,1,3.32-4.25c1.08,0,2.7,1.08,2.54,4.1Zm-131.45,1.69v-3.85h9.62l-3.25-5.77H49.25l3.23,5.77h9.43v10.1c0,.48-.15.83-.33.83-.73,0-2.21-1.92-3.6-1.92a2.64,2.64,0,0,0-2.46,2.38,14.79,14.79,0,0,0,2.85,6.39l10.89,14.77,2.52-2.5a85.64,85.64,0,0,1-8.58-10.33,19.26,19.26,0,0,0,4.48-4.83c1.69,1.58,3.69,3.41,6,3.41A15.09,15.09,0,0,0,77.7,155a12.89,12.89,0,0,0,10.06,6.47c2.74,0,5.51-1.29,8.95-3.85v6.29l5.77,4.27V137.42h48.1v3.21a7,7,0,0,0-6.29,7.05c0,3.54,2.73,6.88,8.17,9.9a17.28,17.28,0,0,1-12.12,5.77c-3.1,0-4-.9-4-2.48,0-1.92,1.92-3.84,7.69-3.84l-2.5-6a10,10,0,0,0-5.77,1,6.19,6.19,0,0,1-1-.81l-1.07-1.63a3.42,3.42,0,0,1,0-.64,3.49,3.49,0,0,1,3.72-3.26h.12a20.69,20.69,0,0,1,3.85.39l-2.62-5.77A13,13,0,0,0,136,140a6.77,6.77,0,0,0-7,4.54l-1.06-1.92H107.46l3.27,5.77h3.85a7.8,7.8,0,0,0-1,4.17c0,4.29,5.45,9.95,10.55,9.95a14.17,14.17,0,0,0,7.69-3.43c1,4.18,7,8.93,12.29,8.93,7.56,0,17.61-7.41,17.61-17.51a14.23,14.23,0,0,0-5.31-9.33Zm-26.72,7.22a16.53,16.53,0,0,0,2.12,3.19c-4.22,4.08-7.93,6.14-10.91,6.14-1.54,0-2.29-.6-2.29-2.06a8.38,8.38,0,0,1,4-6.43,11.2,11.2,0,0,1,5-.84Zm24.37,7.15a7.66,7.66,0,0,1-3.55-6.19c0-2.6,1.77-5,3.84-5,1.14,0,2.08,1,2.08,3.85a15.7,15.7,0,0,1-2.46,7.48Zm-69.25,1.1a3.33,3.33,0,0,1-3.29-3.37c0-.11,0-.22,0-.32a6.37,6.37,0,0,1,6-6.66,13.87,13.87,0,0,1,9.17,3.75v.81c-3.27,2.38-9.23,5.77-11.94,5.77Z"/><path class="cls-3" d="M38.57,280.38v-13h19.8v8h0a9.2,9.2,0,0,0-3.06-4,8.69,8.69,0,0,0-3.85-.92A7,7,0,0,0,44,277.06c0,.12,0,.24,0,.35,0,3.85,5,8.2,9.18,8.2a9.58,9.58,0,0,0,5.34-2.35v4.47L63.1,291V280.65a16,16,0,0,1,6.54-3.85,1.69,1.69,0,0,1,1.52,1.6,26.57,26.57,0,0,1-3.46,8.13l4.23,3.16a18.16,18.16,0,0,0,2.7-8.14c0-4.77-3.35-8.58-6.72-8.58A9.74,9.74,0,0,0,63,275v-7.58H78.09l-2.54-4.27H16.18l2.5,4.27h3.6v14c0,1,.33,1.92,1.92,3,1,.65,12.55,7.48,13.85,8.37a2.54,2.54,0,0,1,1.31,2.1,5.89,5.89,0,0,1-.77,2L42.71,300a7.69,7.69,0,0,0,1.92-3.85,4,4,0,0,0-2.17-3.31L31.17,285.9C27.32,283.49,27,282.26,27,281V267.55h7v9.61c0,1.93-.54,2.52-1.71,2.52-.72,0-1.47-.17-2-.21l1.92,3.37a13.35,13.35,0,0,0,4,.88c1.62,0,2.37-.65,2.37-3.23Zm371-13h3.6v7c0,.54-.17.89-.54.89-.86,0-2.06-1.25-3.36-1.25a1.8,1.8,0,0,0-1.45,1.65c0,.85.87,2.18,2.72,4.41L419,290.65l1.79-1.75a64.28,64.28,0,0,1-6.54-7.54,6.76,6.76,0,0,0,3.23-5v-8.95H426l-2.56-4.27h-22c-2.75-4.65-4.72-8.1-6.93-10.12a6,6,0,0,0-4.21-1.79c-1.23,0-2.73,0-2.73,1.06,0,.6.21,1.06,2.15,4.5a13,13,0,0,1,2.91-.48,3.56,3.56,0,0,1,2.59,1.18,30.48,30.48,0,0,1,4.33,5.65H383.43l2.4,4.27h3.29v6.29c0,1.33-2.67,2.89-4.84,2.89a6.18,6.18,0,0,1-3.85-1.93,4.17,4.17,0,0,0,2.19-3.61c0-3.62-5.13-8.54-9.41-8.54a27.31,27.31,0,0,0-6.69,1.77l2.37,4.48a23.74,23.74,0,0,1,7.58-2.08c1.28,0,2.15.44,2.15,1.81,0,2.33-2.33,4.29-7.1,5-1,.14-1.27.46-1.27.67A19.41,19.41,0,0,0,373,278a21,21,0,0,0,5.62-2.17,7.24,7.24,0,0,1,1,3.63c0,2.35-2.33,4.2-5.37,4.2s-5.65-2.46-7.9-7.12l-1.81,1.1c2.79,5.86,7.41,10.06,11.54,10.06,4.48,0,7.54-2.89,7.54-6.27a7,7,0,0,0-.54-2.85v-.14a15,15,0,0,0,4.33,1.66,4.39,4.39,0,0,0,1.93-.29v7.33l4.48,3.25v-23H399v19.78l4.48,3.17V267.39Zm-54.8,0-2.51-4.27h-4.92c-.83-7.92-4.66-11.54-9.23-11.54a5.91,5.91,0,0,0-6.31,5.29,6.26,6.26,0,0,0,1.71,3.94l2.67-.31a14.77,14.77,0,0,1,0-1.63,3.49,3.49,0,0,1,3.54-3.43h.1c2.83,0,5.35,3.09,5.5,7.69H305.15l2.5,4.27h16.82v8h0a9.05,9.05,0,0,0-3.08-4,8.43,8.43,0,0,0-3.85-.92,7.06,7.06,0,0,0-7.45,6.64c0,.11,0,.22,0,.32,0,3.85,5,8.2,9.17,8.2a9.7,9.7,0,0,0,5.37-2.35l-.1,4.47,4.6,3.25V280.67a16,16,0,0,1,6.54-3.85,1.66,1.66,0,0,1,1.5,1.6,26.63,26.63,0,0,1-3.38,8.11l4.25,3.16a18.1,18.1,0,0,0,2.65-8.14c0-4.77-3.31-8.58-6.67-8.58a9.85,9.85,0,0,0-4.89,2.1v-7.58H344.2v19.77l4.51,3.18V267.39ZM324.52,278c-1.25,1.06-6.73,4.39-8.17,4.39-1,0-1.93-1.08-1.93-2.81a5.08,5.08,0,0,1,4.66-4.87,7.73,7.73,0,0,1,5.46,3.29Zm-31.8,12.39v-23h6.12l-2.58-4.27H175.59l2.53,4.27h7.3V275c0,.37,0,.62-.27.62-.56,0-1.72-1.47-2.75-1.47a1.93,1.93,0,0,0-1.93,1.79,11,11,0,0,0,2.21,4.79l8.37,11.08L193,290a59.9,59.9,0,0,1-6.62-7.7,16.89,16.89,0,0,0,3.46-3.6,7.63,7.63,0,0,0,4.62,2.54,12.73,12.73,0,0,0,3.13-.46,10.15,10.15,0,0,0,7.87,4.79,11.82,11.82,0,0,0,6.95-3v4.71l4.56,3.18V267.39h37.32v2.39a5.28,5.28,0,0,0-4.89,5.36c0,2.62,2.1,5.16,6.31,7.35a13.45,13.45,0,0,1-9.39,4.31c-2.4,0-3.08-.75-3.08-1.92,0-1.48,1.52-3,6-3l-1.93-4.49a8,8,0,0,0-4.4.79,3.62,3.62,0,0,1-.79-.61l-.15-1.93a5.12,5.12,0,0,1-.7.77,1.12,1.12,0,0,1-.09-.44,2.71,2.71,0,0,1,2.93-2.47h.11a13.85,13.85,0,0,1,2.94.31l-2.1-4.12a9.72,9.72,0,0,0-2.15-.25,5.23,5.23,0,0,0-5.43,3.38l-.82-1.4H220.81l2.52,4.27h3a5.66,5.66,0,0,0-.85,3.1c0,3.23,4.27,7.44,8.23,7.44a10.93,10.93,0,0,0,5.77-2.57c.79,3.17,5.49,6.69,9.62,6.69,5.87,0,13.66-5.54,13.66-13.08a10.52,10.52,0,0,0-4.11-6.95v-2.92h19.75v4h-6.63c-4.78,0-6.95,2.75-6.95,5.31,0,3.21,1.71,6.16,6.7,13.27l1.92-1.42c-2.56-3-4.27-6.12-4.27-8.43s1-4.46,4.31-4.46h5.1v11.54l4.5,3.18V267.39h5.23v19.78l4.46,3.17Zm-54.86-14.66a12.35,12.35,0,0,0,1.67,2.39c-3.27,3.06-6.15,4.61-8.46,4.61-1.18,0-1.81-.48-1.81-1.55a6.32,6.32,0,0,1,3.15-4.83,9.23,9.23,0,0,1,3.85-.62Zm18.95,5.35a5.75,5.75,0,0,1-2.79-4.66,3.58,3.58,0,0,1,3.08-3.84c.86,0,1.61.8,1.61,2.82a11.23,11.23,0,0,1-1.92,5.6ZM197.5,267.43h14.83v6.95a24.56,24.56,0,0,0-3.85-3.64,8.19,8.19,0,0,0-4-.87c-4.68,0-8.06,3-8.2,6.54a9.66,9.66,0,0,1-2.5.45,12.1,12.1,0,0,1-3.73-.52v-8.91h7.43Zm5.61,14.45a2.53,2.53,0,0,1-2.53-2.51c0-.08,0-.16,0-.24a4.79,4.79,0,0,1,4.62-5h.08a11.2,11.2,0,0,1,7.1,2.75v.62c-2.52,1.77-7.18,4.31-9.28,4.31Zm-51.65-.71h8v6l4.64,3.17v-23h5l-2.5-4.27H84.53l2.54,4.27h16.82v8h-.14a8.8,8.8,0,0,0-3.06-4,8.56,8.56,0,0,0-3.85-.92A7,7,0,0,0,89.41,277c0,.12,0,.25,0,.37,0,3.85,5,8.2,9.14,8.2a9.47,9.47,0,0,0,5.35-2.35v4.47l4.57,3.25V280.65A16,16,0,0,1,115,276.8a1.72,1.72,0,0,1,1.53,1.6,28.14,28.14,0,0,1-3.32,8.13l4.13,3.06a18.38,18.38,0,0,0,2.68-8.14c0-4.77-3.33-8.58-6.72-8.58a9.81,9.81,0,0,0-4.79,2.12v-7.58h26.82v4.16h-6.68c-4,0-6.23,1.69-6.23,5.46a11.55,11.55,0,0,0,11.37,11.72h0a6.16,6.16,0,0,0,3.21-.66l3.54,7.16,2.35-1.16-4-6.83a3.29,3.29,0,0,0,1.92-2.69c0-1.92-4.33-4.85-5.77-4.85a1.61,1.61,0,0,0-1.62,1.33c0,1.46.73,1.77.73,2.5s-1.52,1.62-3.32,1.62a4.83,4.83,0,0,1-4.62-5,4,4,0,0,1,3.45-4.49,4.55,4.55,0,0,1,.53,0h8.58c.52,0,.89-.44.89-1.19v-7h7.13v9.33h-1.48a1.18,1.18,0,0,0-1.23,1.12v.06c0,1.8,4.68,6.65,6,6.65.83,0,1.33-.42,1.33-1.13v-2.29Zm7.95-13.74v9.48h-7.95v-9.48ZM103.89,278c-1.25,1.06-6.74,4.39-8.22,4.39-.94,0-1.92-1.08-1.92-2.81a5.1,5.1,0,0,1,4.67-4.87A7.75,7.75,0,0,1,103.89,278Zm-45.5,0c-1.27,1.06-6.73,4.39-8.2,4.39-1,0-1.92-1.08-1.92-2.81a5.07,5.07,0,0,1,4.66-4.87A7.73,7.73,0,0,1,58.39,278Z"/><path class="cls-3" d="M105.68,48.72A95.69,95.69,0,1,1,10,144.44v-.05A95.68,95.68,0,0,1,105.68,48.72Zm0,8.58a87.11,87.11,0,1,1-87.13,87.09A87.11,87.11,0,0,1,105.68,57.3Z"/><path class="cls-3" d="M331.85,48.72a95.69,95.69,0,1,1-95.67,95.7v0A95.69,95.69,0,0,1,331.85,48.72Zm0,8.58a87.11,87.11,0,1,1-87.12,87.09A87.11,87.11,0,0,1,331.85,57.3Z"/><path class="cls-3" d="M6.25,139.4c-5.52,2.52-9.27-5.42-3-8.25l33.26-15L246,18.71l19.45-8.45c23.34-8.77,46.27-15.1,66.74-5.33,31.78,16.18,26.93,63.37.27,85.65-4.91,4.08-10.26-1.93-6.16-6.29C367,41.41,341.72-10.92,274.39,16.34c-4.23,1.71-7.87,3.1-12,5C185.45,55.93,108.89,92,32.24,127.69Z"/><path class="cls-3" d="M415,139.81c-5.48,2.63-9.26-5.31-3-8.27L577.33,55.1l19.41-8.46c23.33-8.79,45.59-16.18,66-6.46,31.82,16.19,26.93,63.48.27,85.66a4.41,4.41,0,0,1-6.17-6.29c40.39-43.8,15.5-96-51.23-66.83-4.2,1.92-7.89,3.1-12,5C533.83,84.63,474.14,111.37,415,139.81Z"/></svg>