<?xml version="1.0" encoding="utf-8"?>
<!-- Generator: Adobe Illustrator 26.0.3, SVG Export Plug-In . SVG Version: 6.00 Build 0)  -->
<svg version="1.0" id="Layer_1" xmlns="http://www.w3.org/2000/svg" xmlns:xlink="http://www.w3.org/1999/xlink" x="0px" y="0px"
	 viewBox="0 0 990 624.7" style="enable-background:new 0 0 990 624.7;" xml:space="preserve">
<style type="text/css">
	.st0{fill-rule:evenodd;clip-rule:evenodd;fill:#EB6303;}
	.st1{fill-rule:evenodd;clip-rule:evenodd;fill:#202060;}
	.st2{fill-rule:evenodd;clip-rule:evenodd;fill:#007534;}
	.st3{fill-rule:evenodd;clip-rule:evenodd;fill:#007433;}
	.st4{fill-rule:evenodd;clip-rule:evenodd;fill:#803D10;}
</style>
<path class="st0" d="M756,238.6l-480.4,0.2h-28.7v15.4l25.6,0.1l0.2,0.1l590.7-0.1l6.6-15.7c-10.8,0-107,0.4-108.9-0.2
	C759.1,238.6,758.3,239,756,238.6 M741.8,306.7c1,0,2.1-0.2,3-0.6c7.5-2.2,17-4.9,24.7-4.9c3.5-0.1,7,1.2,9.6,3.5
	c6.1,6.1,2.8,17.1,1.2,25.8l-15,78.5c-1,5.2-2.2,10.4-3,15.6c-1.2,7.2-2.2,9.7-2.2,18.3c0,15.5,9.2,28.5,24.5,28.5
	c14.1,0,25.1-5.2,36.5-12.1c5.3-3.4,10.5-7,15.4-10.9c1.7-1.4,10.2-8.4,10.6-9.1l0.3-12.9c-1.4,0.4-6.5,5.7-8.5,7.2
	c-2.9,2.3-5.6,4.8-8.9,7.2c-5.2,3.7-24.5,16.9-30.6,5.7c-3.2-5.9-2.1-13.9-0.7-20.2c2-8.7,4.8-23.4,6.5-31.9
	c2.8-14.2,5.7-28,8.6-42.2l4.3-20.9c2-8.5,4.7-23.1,6.5-31.9c0.7-3.6,1.6-7.3,2.2-10.6s4.1-19,4.1-21.5c-0.9,0.3-1.8,0.6-2.8,0.9
	l-82.3,26.2c-3.5,1-3.2,0.4-3.3,4.7C742.4,301.5,741.8,304.5,741.8,306.7z"/>
<path class="st1" d="M543,406.4c0,13.5,2.6,27.4,11.4,35.8l0.8,0.7c15.9,14.7,39.6,0.8,53-10.1c9.2-7.7,17.7-16.2,25.3-25.5
	c1.6-2,3-3.7,4.5-5.7c5.3-7.1,7.6-10.9,12.5-18.2c3-4.5,4.3-7.4,6.6-11.3l1.1-1.5l-2.5,13.2c-1,5.2-7.3,36.1-7.3,40.1
	c0,25.1,17,29.4,37.4,21.3l6.5-3c2-1.2,4.1-2.1,6.1-3.4c5.7-3.6,11.1-7.8,16-12.4c1.8-1.8,10.3-10.4,11.2-12.5l2-12.2
	c-9.8,9.2-16.1,17.9-28.4,25.6c-5.3,3.3-17.4,10.1-20.8,0.6c-3.3-9,4.6-34.9,6.6-46.7c1.7-9.9,5.7-26.4,7.8-36.8l3.9-18.4
	c0.7-2.9,1.3-6,1.9-9c0.5-2.5,5.7-26.8,5.8-27.9c-2.2,0-5.8-0.6-8-0.7c-10.1-0.5-17.3-1.1-28.1-1.1c-28.7,0-50,5.7-70.3,21
	l-16.6,14.1c-1.3,1.3-2.4,2.3-3.6,3.7c-2.3,2.8-4.9,5.4-7.1,8.3c-3.4,4.3-6.6,8.9-9.5,13.6c-6,9.9-10.7,20.6-13.9,31.8
	C544.6,388.5,543.2,397.4,543,406.4 M586.1,426.1c-3.9-0.1-7.5-2.2-9.4-5.6c-7.3-12.1-0.4-39.4,3.2-52.4c2.9-9.9,6.6-19.4,11.2-28.6
	c3.4-6.7,10.5-19.1,15.4-24c1.6-1.7,3.3-3.3,5.2-4.6c12.9-8.8,29.5-7.6,44.1-4.7c3.1,0.6,13,3,15.3,4.1c-0.2,2.1-5,25-5.3,25.8
	c-0.6,1.5-1.4,2.8-2,4.2c-4,9.9-17.4,31.4-23.6,39.6l-13.8,17.3c-3.8,4.6-7.8,8.9-12.1,13.1c-5.1,5-2.3,3.7-10.1,8.9
	C600.4,421.8,592.6,426.1,586.1,426.1L586.1,426.1z"/>
<path class="st1" d="M272.7,254.5l-0.2-0.1l-25.6-0.1v-15.4h28.7c0-1.8,5.9-33.1,6.2-34.8c4.5-20.6,18.2-39.4,40.2-42.3
	c6.2-0.7,12.5-0.1,18.5,1.8c6.5,2.1,14,6.4,14.3,6.5c1-0.7,15.1-14.5,17.1-16.5c6.8-6.8,7-5.2-0.1-6.3c-17.9-2.6-41.1-0.5-57.9,6.3
	c-7.8,3-15.3,7-22.2,11.7l-7,5.4c-0.9,0.8-1.6,1.2-2.4,2c-7.5,6.8-14,14.6-19.2,23.1c-1.1,1.8-2.2,3.5-3.1,5.3
	c-5.8,11.2-6.1,12.9-9.8,23.8c-0.7,2-1.4,4.5-1.9,6.6c-0.3,1.4-0.5,2.2-0.8,3.6c-0.4,1.2-0.6,2.4-0.7,3.7H207v15.7h36.9l-3,17.4
	c-1,5.6-2,12-3.2,17.7c-4.5,22.5-8,47.8-12.5,70.1c-2.3,11.5-4.1,23.5-6.3,35.3c-7.5,40-10.4,87.6-64.2,78.8
	c-5.9-1-11.1-2.7-16.8-4.1l-18,21.5c21.5,0.5,32.8,5,55.5-3.1c15.1-5.5,28.3-15.1,38.2-27.8c3.2-4.1,4.8-6.4,7.8-10.8
	c5.9-8.8,12.4-23.3,16.1-33.2c14.8-39.9,20.8-88.6,29.2-130.5C267.5,282.1,272.2,255.5,272.7,254.5"/>
<path class="st1" d="M299.4,333c0,4.6,0.8,9.1,2.3,13.4c1.1,3.7,2.9,7,5.4,9.9c3.2,3.6,7.5,9,10.8,12.2c2.2,2.2,8.2,9.5,10.8,12.2
	c9,9.7,17.1,17.5,17.1,31.9c0,11.5-10.8,20.1-22.3,20.1h-4.8c-12.1,0-29.4-8.5-36.9-13.5l-19.4,20.5c1.3,0.1,3.2,1.1,4.7,1.5
	c8.8,2.9,21.7,6.6,30.8,6.5c2.5,0,3.6,0.4,6.2,0.4c13.7,0,27.3-3.4,39.3-10c1.6-0.8,3.1-1.8,4.5-2.8c20.5-14.5,28.1-39.3,12.6-59.8
	c-3.8-5-10.4-12.4-14.5-17.6l-14.3-17.5c-5.5-6.2-9.8-13.3-9.8-22.4c0-13.8,13.9-21.5,26.3-21.5c9.6,0,18.9,2.3,23.8,10.1
	c4.2,6.6,1.8,11.4,1.8,15.8h9.5l7.3-31.8l-6-2.1c-2.3-0.7-4-1.1-6.4-1.6c-25.3-6-57.4,2.7-72.4,25.3
	C301.8,318.3,299.5,325.5,299.4,333"/>
<path class="st1" d="M431.6,332.6c0,6.8,0.7,8.8,2.6,14.6c0.7,1.8,1.4,3.6,2.4,5.3c1.7,3.4,11,13,14.1,16.6c0.7,0.8,0.8,1.2,1.6,2
	c0.7,0.7,1.3,1.4,1.9,2.1l12.5,14.2c0.7,0.7,1.3,1.2,2,2c9,10.7,14.2,26.7,2.6,37.4c-10.5,9.7-29,5.6-40.4,1.1
	c-4.5-1.9-9-4-13.2-6.5c-1.2-0.7-2.9-2.1-4.4-2.2l-18.6,20.2c7.6,4,28,8.4,36.9,8.4c13.1,0,18.9,0.1,31.6-4.2
	c24.7-8.2,45.3-32.2,35.2-57.6c-1.5-3.7-3.3-7.2-5.6-10.4c-3.2-4.2-10.7-12.9-14.4-17.4c-4.8-6-9.6-11.5-14.3-17.5
	c-3.2-4.1-4.1-4.4-6.5-9.2c-3.5-7.1-5-15.5-1.1-22.8c1.3-2.4,3.1-4.4,5.3-6c13.2-10.9,45-8.2,45,13.2c-0.1,2.1-0.4,4.2-1.1,6.2h9.9
	l6.9-31.8c-2.9-0.7-6.5-2.2-11.6-3.4c-13-3.1-30.5-2.2-42.5,2.5c-3.5,1.4-5.9,2.4-9.1,4c-5.7,2.9-10.8,6.7-15.2,11.3
	C437.1,311.6,431.7,321.7,431.6,332.6"/>
<path class="st2" d="M144.8,495.5h-10.2c-5.2,0-9.1-0.7-14.2-0.7v2.2H813c0.3-1.2,4-9.2,5-11.1c0.8-1.2,1.3-2.5,1.6-3.9H207
	c-19.1,0-7.2-0.3-25.9,6.6C170.8,492.5,156.6,495.5,144.8,495.5"/>
<path class="st3" d="M784.4,220.9c0.5,1.9,1.2,3.1,1.5,4.7c-2.1,0.6-6.3,7.2-22.4,9.7c-1.6,0.3-3.3,0.5-5,0.5c-2.9,0-2.5,0-2.5,2.8
	c2.3,0.5,3.2,0,5.1,0c7.5-1.3,11-1.3,18.6-5.3c2.5-1.3,4.8-2.9,7-4.7c2.3-2,4.7-1,10.1-2c13.1-2.3,22-10.1,28.3-19.5
	c12.8-19.3,16.4-47.3,16.4-79.4h-0.7c-0.5,5.8-12.1,23-16.9,28.4c-0.8,0.9-1.1,1.5-2,2.4L804.3,177c-3.3,3.6-7.9,8.6-10.7,12.3
	c-4.1,5.3-8,11.2-9.4,18C783.1,211.8,783.2,216.5,784.4,220.9"/>
<path class="st4" d="M781.8,210.4c-0.4-0.7-0.8-1.4-1.3-2.1c-4.5-6.2-13.2-7.6-19.4-3.1c-0.8,0.5-1.5,1.2-2.1,1.9
	c-2.5,2.7-3.8,5.4-3.8,10.5c0,4.2,1.8,7,4.3,9.6c5.4,5.4,14.2,5.4,19.6-0.1c0.2-0.2,0.3-0.3,0.5-0.5c1.9-2.2,3.1-4.9,3.6-7.8
	C783.5,215.9,783,213,781.8,210.4"/>
</svg>
